<svg viewBox="0 0 220 220" xmlns="http://www.w3.org/2000/svg" role="img" aria-label="Hop the bunny, PlayBox mascot">
  
  <ellipse cx="92" cy="52" rx="17" ry="44" fill="#FF8FB1" transform="rotate(-10 92 52)"></ellipse>
  <ellipse cx="132" cy="52" rx="17" ry="44" fill="#FF8FB1" transform="rotate(10 132 52)"></ellipse>
  <ellipse cx="92" cy="56" rx="8" ry="30" fill="#FFDCE8" transform="rotate(-10 92 56)"></ellipse>
  <ellipse cx="132" cy="56" rx="8" ry="30" fill="#FFDCE8" transform="rotate(10 132 56)"></ellipse>
  
  <ellipse cx="112" cy="150" rx="52" ry="46" fill="#FF8FB1"></ellipse>
  <ellipse cx="112" cy="160" rx="32" ry="30" fill="#FFFFFF"></ellipse>
  
  <ellipse cx="88" cy="190" rx="18" ry="13" fill="#FFFFFF"></ellipse>
  <ellipse cx="136" cy="190" rx="18" ry="13" fill="#FFFFFF"></ellipse>
  
  <circle cx="112" cy="108" r="48" fill="#FF8FB1"></circle>
  
  <circle cx="84" cy="116" r="9" fill="#E2628A" opacity="0.55"></circle>
  <circle cx="140" cy="116" r="9" fill="#E2628A" opacity="0.55"></circle>
  
  <circle cx="96" cy="102" r="7.5" fill="#43352F"></circle>
  <circle cx="128" cy="102" r="7.5" fill="#43352F"></circle>
  <circle cx="98.5" cy="99.5" r="2.4" fill="#FFFFFF"></circle>
  <circle cx="130.5" cy="99.5" r="2.4" fill="#FFFFFF"></circle>
  
  <path d="M108 116 h8 l-4 5 Z" fill="#E2628A"></path>
  <path d="M112 121 q-7 9 -14 4 M112 121 q7 9 14 4" stroke="#43352F" stroke-width="3" fill="none" stroke-linecap="round"></path>
</svg>