<svg width="360" height="110" viewBox="0 0 360 110" fill="none" xmlns="http://www.w3.org/2000/svg" role="img" aria-label="PlayBox">
  
  <g transform="translate(0,5)">
    <rect x="10" y="26" width="80" height="66" rx="20" fill="#FF5C8A"></rect>
    <rect x="44" y="26" width="12" height="66" fill="#FF7FA5" opacity="0.7"></rect>
    <rect x="10" y="53" width="80" height="10" fill="#FF7FA5" opacity="0.55"></rect>
    <path d="M10 36 Q6 14 26 11 L46 21 Q28 26 34 43 Z" fill="#FFC93C"></path>
    <path d="M90 36 Q94 14 74 11 L54 21 Q72 26 66 43 Z" fill="#38BDF8"></path>
    <rect x="27" y="50" width="46" height="35" rx="12" fill="#FFF9F0"></rect>
    <circle cx="42" cy="64" r="5" fill="#3D2C56"></circle>
    <circle cx="58" cy="64" r="5" fill="#3D2C56"></circle>
    <path d="M46 73 Q50 79 54 73" stroke="#3D2C56" stroke-width="3" stroke-linecap="round" fill="none"></path>
  </g>
  
  <text x="108" y="72" font-family="Fredoka, &#39;Trebuchet MS&#39;, sans-serif" font-size="48" font-weight="700" letter-spacing="-0.5">
    <tspan fill="#FF5C8A">Play</tspan><tspan fill="#38BDF8">Box</tspan>
  </text>
</svg>