<svg xmlns="http://www.w3.org/2000/svg" viewBox="0 0 640 390" fill="none">
<path d="M36 299C74 206 149 258 248 263C359 175 491 228 606 283V357H36Z" fill="#D2F2D9"/>
<path d="M252 390C252 338 425 352 388 303" stroke="#FBEFDD" stroke-width="38"/>
<g fill="#FFF"><rect x="433" y="47" width="101" height="22" rx="11"/><circle cx="461" cy="46" r="20"/><circle cx="485" cy="41" r="27"/><rect x="50" y="65" width="100" height="21" rx="11"/><circle cx="82" cy="63" r="21"/><circle cx="108" cy="58" r="26"/></g>
<circle cx="352" cy="68" r="28" fill="#FFC93C"/><g stroke="#FFC93C" stroke-width="5" stroke-linecap="round"><path d="M352 25v-7M352 112v7M307 68h-7M397 68h7M320 37l-5-5M384 99l5 5M320 99l-5 5M384 37l5-5"/></g>
<rect x="83" y="191" width="157" height="119" rx="10" fill="#FFE0CB"/><path d="m66 199 96-94 96 94Z" fill="#FF924C"/><path d="m74 199 88-83 88 83" stroke="#E26E26" stroke-width="9" stroke-linecap="round" stroke-linejoin="round"/>
<rect x="146" y="243" width="40" height="67" rx="19" fill="#9B5DE5"/><circle cx="176" cy="279" r="3" fill="#FFC93C"/>
<g fill="#FFF" stroke="#E26E26" stroke-width="5"><rect x="101" y="221" width="27" height="29" rx="6"/><rect x="200" y="221" width="27" height="29" rx="6"/></g>
<path d="M290 309V149Q290 135 304 135H409Q423 135 423 149V309Z" fill="#CDEAFA"/><path d="M281 136h151" stroke="#2A88C2" stroke-width="13" stroke-linecap="round"/>
<g fill="#FFF" stroke="#45ADE8" stroke-width="5"><rect x="311" y="158" width="27" height="33" rx="6"/><rect x="374" y="158" width="27" height="33" rx="6"/><rect x="311" y="213" width="27" height="33" rx="6"/><rect x="374" y="213" width="27" height="33" rx="6"/></g>
<path d="M341 309v-40a17 17 0 0 1 34 0v40" fill="#2A88C2"/>
<path d="M478 290v41M557 290v41" stroke="#6E5C87" stroke-width="9" stroke-linecap="round"/><rect x="460" y="198" width="116" height="94" rx="9" fill="#E7D6FB"/><path d="m444 203 74-57 74 57Z" fill="#9B5DE5"/><rect x="475" y="220" width="25" height="28" rx="5" fill="#FFF"/><rect x="526" y="237" width="31" height="55" rx="15" fill="#7838C9"/>
<path d="M438 343q15-10 29 0t29 0t29 0t29 0t29 0" stroke="#45ADE8" stroke-width="5" stroke-linecap="round"/>
<g stroke="#3DA258" stroke-width="6" stroke-linecap="round"><path d="M49 294v-71M260 312v-83M610 300v-76"/></g><g fill="#5FC97B"><ellipse cx="49" cy="223" rx="26" ry="35"/><ellipse cx="260" cy="228" rx="21" ry="29"/><ellipse cx="610" cy="224" rx="23" ry="32"/></g>
<g transform="translate(203 294)"><ellipse cy="39" rx="22" ry="6" fill="#3D2C56" opacity=".1"/><rect x="-17" y="-2" width="34" height="39" rx="15" fill="#FF8FB1"/><circle cy="-11" r="21" fill="#FFF9F0"/><path d="M-13-26q-9-29 0-30t7 29M5-27q-1-30 9-28t-2 31" fill="#FFF9F0"/><circle cx="-7" cy="-12" r="2.5" fill="#3D2C56"/><circle cx="7" cy="-12" r="2.5" fill="#3D2C56"/><path d="M-5-3q5 5 10 0" stroke="#3D2C56" stroke-width="2.5" stroke-linecap="round"/></g>
<g transform="translate(393 325)"><rect x="-21" y="-23" width="42" height="42" rx="15" fill="#FFC93C"/><circle cx="-8" cy="-7" r="3" fill="#3D2C56"/><circle cx="8" cy="-7" r="3" fill="#3D2C56"/><path d="M-6 3q6 7 12 0" stroke="#3D2C56" stroke-width="3" stroke-linecap="round"/><path d="m-22-3-9-9m53 9 9-12" stroke="#E5A511" stroke-width="6" stroke-linecap="round"/></g>
<g fill="#FF6B6B"><path d="M282 83c-13-14-24 8 0 21 24-13 13-35 0-21Z"/><circle cx="57" cy="325" r="5"/><circle cx="274" cy="338" r="5"/></g>
</svg>
