<svg viewBox="0 0 220 220" xmlns="http://www.w3.org/2000/svg" role="img" aria-label="Pudge the pig">
  <path d="M70 62 q-11 -32 15 -30 q9 15 2 32 Z" fill="#E89B6B"></path>
  <path d="M150 62 q11 -32 -15 -30 q-9 15 -2 32 Z" fill="#E89B6B"></path>
  <ellipse cx="110" cy="150" rx="62" ry="54" fill="#F6B98E"></ellipse>
  <rect x="76" y="184" width="26" height="22" rx="11" fill="#D98B57"></rect>
  <rect x="118" y="184" width="26" height="22" rx="11" fill="#D98B57"></rect>
  <circle cx="110" cy="104" r="55" fill="#F6B98E"></circle>
  <!-- freckles -->
  <circle cx="80" cy="128" r="2.6" fill="#D98B57"></circle>
  <circle cx="88" cy="134" r="2.6" fill="#D98B57"></circle>
  <circle cx="140" cy="128" r="2.6" fill="#D98B57"></circle>
  <circle cx="132" cy="134" r="2.6" fill="#D98B57"></circle>
  <circle cx="76" cy="120" r="12" fill="#D98B57" opacity="0.35"></circle>
  <circle cx="144" cy="120" r="12" fill="#D98B57" opacity="0.35"></circle>
  <circle cx="91" cy="102" r="8.5" fill="#43352F"></circle>
  <circle cx="129" cy="102" r="8.5" fill="#43352F"></circle>
  <circle cx="93.5" cy="99.5" r="2.6" fill="#FFFFFF"></circle>
  <circle cx="131.5" cy="99.5" r="2.6" fill="#FFFFFF"></circle>
  <ellipse cx="110" cy="130" rx="27" ry="20" fill="#E89B6B"></ellipse>
  <ellipse cx="100" cy="130" rx="5" ry="7.5" fill="#D98B57"></ellipse>
  <ellipse cx="120" cy="130" rx="5" ry="7.5" fill="#D98B57"></ellipse>
  <path d="M86 155 q24 19 48 0" stroke="#D98B57" stroke-width="4" fill="none" stroke-linecap="round"></path>
  <!-- red bowtie -->
  <path d="M110 176 L90 166 L90 186 Z" fill="#E24848"></path>
  <path d="M110 176 L130 166 L130 186 Z" fill="#E24848"></path>
  <circle cx="110" cy="176" r="6" fill="#C43A3A"></circle>
</svg>
