<svg viewBox="0 0 220 220" xmlns="http://www.w3.org/2000/svg" role="img" aria-label="Rex the dinosaur, PlayBox mascot">
  
  <path d="M64 150 C20 150 14 120 38 112 C50 108 64 120 70 134 Z" fill="#1B9A8C"></path>
  
  <path d="M96 44 l14 -22 14 22 Z" fill="#5FC97B"></path>
  <path d="M120 40 l16 -26 16 26 Z" fill="#5FC97B"></path>
  <path d="M146 48 l15 -22 13 24 Z" fill="#5FC97B"></path>
  
  <ellipse cx="120" cy="128" rx="64" ry="58" fill="#2FC2B2"></ellipse>
  
  <ellipse cx="124" cy="142" rx="40" ry="36" fill="#C3F0EA"></ellipse>
  
  <rect x="86" y="172" width="30" height="26" rx="13" fill="#1B9A8C"></rect>
  <rect x="132" y="172" width="30" height="26" rx="13" fill="#1B9A8C"></rect>
  
  <circle cx="132" cy="80" r="50" fill="#2FC2B2"></circle>
  
  <circle cx="104" cy="92" r="9" fill="#FF8FB1" opacity="0.7"></circle>
  <circle cx="160" cy="92" r="9" fill="#FF8FB1" opacity="0.7"></circle>
  
  <circle cx="116" cy="70" r="13" fill="#FFFFFF"></circle>
  <circle cx="150" cy="70" r="13" fill="#FFFFFF"></circle>
  <circle cx="119" cy="72" r="6.5" fill="#43352F"></circle>
  <circle cx="153" cy="72" r="6.5" fill="#43352F"></circle>
  <circle cx="121" cy="70" r="2.2" fill="#FFFFFF"></circle>
  <circle cx="155" cy="70" r="2.2" fill="#FFFFFF"></circle>
  
  <path d="M118 98 q15 16 30 0" stroke="#43352F" stroke-width="4" fill="none" stroke-linecap="round"></path>
  
  <circle cx="80" cy="128" r="13" fill="#1B9A8C"></circle>
</svg>