<svg viewBox="0 0 220 220" xmlns="http://www.w3.org/2000/svg" role="img" aria-label="A hot volcano">
  <ellipse cx="110" cy="198" rx="90" ry="11" fill="#3D2C56" opacity="0.10"></ellipse>

  <!-- smoke puffs -->
  <circle cx="156" cy="42" r="15" fill="#E8E0D8"></circle>
  <circle cx="174" cy="32" r="11" fill="#E8E0D8"></circle>
  <circle cx="188" cy="44" r="8" fill="#E8E0D8"></circle>

  <!-- sparks -->
  <circle cx="66" cy="34" r="6" fill="#FFC93C"></circle>
  <circle cx="110" cy="18" r="7" fill="#FF6B6B"></circle>
  <circle cx="146" cy="14" r="5" fill="#FF924C"></circle>

  <!-- mountain -->
  <path d="M76 64 L28 190 Q110 210 192 190 L144 64 Z" fill="#8B5E3C"></path>
  <path d="M100 70 L78 190 Q92 196 108 197 L112 70 Z" fill="#A9714B" opacity="0.6"></path>

  <!-- lava crater + drips -->
  <rect x="80" y="66" width="18" height="34" rx="9" fill="#FF6B6B"></rect>
  <rect x="104" y="66" width="18" height="52" rx="9" fill="#FF6B6B"></rect>
  <rect x="126" y="66" width="18" height="26" rx="9" fill="#FF6B6B"></rect>
  <ellipse cx="110" cy="64" rx="44" ry="15" fill="#FF6B6B"></ellipse>
  <ellipse cx="110" cy="63" rx="26" ry="8" fill="#FFC93C"></ellipse>
</svg>
